<svg width="104" height="43" viewBox="0 0 104 43" fill="none" xmlns="http://www.w3.org/2000/svg">
<path d="M23.5381 33H0.987305V0.791016H7.43359V26.5537H23.5381V33ZM48.874 20.7588C48.874 22.5557 48.5521 24.2327 47.9082 25.79C47.2643 27.3324 46.3883 28.6725 45.2803 29.8105C44.1722 30.9336 42.8695 31.8245 41.3721 32.4834C39.8896 33.1273 38.2949 33.4492 36.5879 33.4492C34.8958 33.4492 33.3011 33.1273 31.8037 32.4834C30.3213 31.8245 29.0186 30.9336 27.8955 29.8105C26.7874 28.6725 25.9115 27.3324 25.2676 25.79C24.6237 24.2327 24.3018 22.5557 24.3018 20.7588C24.3018 18.932 24.6237 17.2399 25.2676 15.6826C25.9115 14.1253 26.7874 12.7852 27.8955 11.6621C29.0186 10.5241 30.3213 9.63314 31.8037 8.98926C33.3011 8.34538 34.8958 8.02344 36.5879 8.02344C38.2949 8.02344 39.8896 8.3304 41.3721 8.94434C42.8695 9.54329 44.1722 10.4043 45.2803 11.5273C46.3883 12.6354 47.2643 13.9756 47.9082 15.5479C48.5521 17.1051 48.874 18.8421 48.874 20.7588ZM42.6973 20.7588C42.6973 19.7705 42.5326 18.8796 42.2031 18.0859C41.8887 17.2773 41.4544 16.5885 40.9004 16.0195C40.3464 15.4355 39.695 14.9938 38.9463 14.6943C38.2126 14.3799 37.4264 14.2227 36.5879 14.2227C35.7493 14.2227 34.9557 14.3799 34.207 14.6943C33.4733 14.9938 32.8294 15.4355 32.2754 16.0195C31.7363 16.5885 31.3096 17.2773 30.9951 18.0859C30.6807 18.8796 30.5234 19.7705 30.5234 20.7588C30.5234 21.6872 30.6807 22.5482 30.9951 23.3418C31.3096 24.1354 31.7363 24.8242 32.2754 25.4082C32.8294 25.9922 33.4733 26.4564 34.207 26.8008C34.9557 27.1302 35.7493 27.2949 36.5879 27.2949C37.4264 27.2949 38.2126 27.1377 38.9463 26.8232C39.695 26.5088 40.3464 26.0671 40.9004 25.498C41.4544 24.929 41.8887 24.2402 42.2031 23.4316C42.5326 22.623 42.6973 21.7321 42.6973 20.7588ZM69.3809 20.7588C69.3809 19.9202 69.2161 19.1117 68.8867 18.333C68.5723 17.5394 68.138 16.8431 67.584 16.2441C67.0299 15.6302 66.3786 15.1436 65.6299 14.7842C64.8962 14.4098 64.11 14.2227 63.2715 14.2227C62.4329 14.2227 61.6393 14.3649 60.8906 14.6494C60.1569 14.9339 59.513 15.3532 58.959 15.9072C58.4199 16.4613 57.9932 17.1501 57.6787 17.9736C57.3643 18.7822 57.207 19.7106 57.207 20.7588C57.207 21.762 57.3643 22.668 57.6787 23.4766C57.9932 24.2702 58.4199 24.9515 58.959 25.5205C59.513 26.0895 60.1569 26.5312 60.8906 26.8457C61.6393 27.1452 62.4329 27.2949 63.2715 27.2949C64.11 27.2949 64.8962 27.1152 65.6299 26.7559C66.3786 26.3815 67.0299 25.8949 67.584 25.2959C68.138 24.682 68.5723 23.9857 68.8867 23.207C69.2161 22.4134 69.3809 21.5973 69.3809 20.7588ZM75.5576 29.9678C75.5576 31.6598 75.2357 33.2471 74.5918 34.7295C73.9479 36.2119 73.0645 37.5072 71.9414 38.6152C70.8333 39.7233 69.5306 40.5993 68.0332 41.2432C66.5508 41.887 64.9635 42.209 63.2715 42.209L60.1943 42.1641V36.0322L63.2266 36.0771C64.1849 36.0771 65.001 35.9499 65.6748 35.6953C66.3486 35.4557 66.9176 35.1188 67.3818 34.6846C67.846 34.2653 68.2129 33.7786 68.4824 33.2246C68.7669 32.6706 68.9915 32.0866 69.1562 31.4727C68.9167 31.862 68.5723 32.1839 68.123 32.4385C67.6738 32.6781 67.1722 32.8727 66.6182 33.0225C66.0791 33.1872 65.5101 33.2995 64.9111 33.3594C64.3271 33.4193 63.7806 33.4492 63.2715 33.4492C61.5794 33.4492 59.9847 33.1572 58.4873 32.5732C57.0049 31.9893 55.7021 31.1582 54.5791 30.0801C53.471 28.987 52.5951 27.6543 51.9512 26.082C51.3073 24.5098 50.9854 22.7354 50.9854 20.7588C50.9854 18.9469 51.3073 17.2624 51.9512 15.7051C52.5951 14.1478 53.471 12.8001 54.5791 11.6621C55.7021 10.5241 57.0049 9.63314 58.4873 8.98926C59.9847 8.34538 61.5794 8.02344 63.2715 8.02344C64.0501 8.02344 64.8213 8.12077 65.585 8.31543C66.3486 8.51009 67.0898 8.77962 67.8086 9.12402C68.5273 9.46842 69.2087 9.87272 69.8525 10.3369C70.5114 10.8011 71.1253 11.3027 71.6943 11.8418L74.0752 8.98926H75.5576V29.9678ZM103.499 20.7588C103.499 22.5557 103.177 24.2327 102.533 25.79C101.889 27.3324 101.013 28.6725 99.9053 29.8105C98.7972 30.9336 97.4945 31.8245 95.9971 32.4834C94.5146 33.1273 92.9199 33.4492 91.2129 33.4492C89.5208 33.4492 87.9261 33.1273 86.4287 32.4834C84.9463 31.8245 83.6436 30.9336 82.5205 29.8105C81.4124 28.6725 80.5365 27.3324 79.8926 25.79C79.2487 24.2327 78.9268 22.5557 78.9268 20.7588C78.9268 18.932 79.2487 17.2399 79.8926 15.6826C80.5365 14.1253 81.4124 12.7852 82.5205 11.6621C83.6436 10.5241 84.9463 9.63314 86.4287 8.98926C87.9261 8.34538 89.5208 8.02344 91.2129 8.02344C92.9199 8.02344 94.5146 8.3304 95.9971 8.94434C97.4945 9.54329 98.7972 10.4043 99.9053 11.5273C101.013 12.6354 101.889 13.9756 102.533 15.5479C103.177 17.1051 103.499 18.8421 103.499 20.7588ZM97.3223 20.7588C97.3223 19.7705 97.1576 18.8796 96.8281 18.0859C96.5137 17.2773 96.0794 16.5885 95.5254 16.0195C94.9714 15.4355 94.32 14.9938 93.5713 14.6943C92.8376 14.3799 92.0514 14.2227 91.2129 14.2227C90.3743 14.2227 89.5807 14.3799 88.832 14.6943C88.0983 14.9938 87.4544 15.4355 86.9004 16.0195C86.3613 16.5885 85.9346 17.2773 85.6201 18.0859C85.3057 18.8796 85.1484 19.7705 85.1484 20.7588C85.1484 21.6872 85.3057 22.5482 85.6201 23.3418C85.9346 24.1354 86.3613 24.8242 86.9004 25.4082C87.4544 25.9922 88.0983 26.4564 88.832 26.8008C89.5807 27.1302 90.3743 27.2949 91.2129 27.2949C92.0514 27.2949 92.8376 27.1377 93.5713 26.8232C94.32 26.5088 94.9714 26.0671 95.5254 25.498C96.0794 24.929 96.5137 24.2402 96.8281 23.4316C97.1576 22.623 97.3223 21.7321 97.3223 20.7588Z" fill="white"/>
</svg>
